<svg width="40" height="40" viewBox="0 0 40 40" fill="none" xmlns="http://www.w3.org/2000/svg">
<path fill-rule="evenodd" clip-rule="evenodd" d="M20.6864 6.66666C13.5716 6.66666 7.80396 12.6362 7.80396 20C7.80396 27.3638 13.5716 33.3333 20.6864 33.3333C27.801 33.3333 33.5687 27.3638 33.5687 20C33.5687 12.6362 27.801 6.66666 20.6864 6.66666ZM4.58337 20C4.58337 10.7952 11.7929 3.33333 20.6864 3.33333C29.5797 3.33333 36.7892 10.7952 36.7892 20C36.7892 29.2047 29.5797 36.6667 20.6864 36.6667C11.7929 36.6667 4.58337 29.2047 4.58337 20Z" fill="black"/>
<path fill-rule="evenodd" clip-rule="evenodd" d="M35.179 21.6667H6.1936V18.3333H35.179V21.6667Z" fill="black"/>
<path fill-rule="evenodd" clip-rule="evenodd" d="M19.547 33.8222C19.547 33.8222 19.5477 33.8215 20.6863 35C21.825 36.1785 21.8257 36.1777 21.8257 36.1777L21.8288 36.1743L21.8352 36.1678L21.8547 36.1473C21.8707 36.1303 21.8927 36.107 21.9203 36.0773C21.9753 36.018 22.0527 35.9332 22.1493 35.8243C22.3422 35.6068 22.6122 35.2923 22.9333 34.8907C23.5743 34.0888 24.426 32.9318 25.2783 31.4985C26.9687 28.6553 28.7377 24.597 28.7377 20C28.7377 15.4031 26.9687 11.3447 25.2783 8.50149C24.426 7.06809 23.5743 5.91109 22.9333 5.10926C22.6122 4.70763 22.3422 4.39314 22.1493 4.17561C22.0527 4.06679 21.9753 3.98208 21.9203 3.92268C21.8927 3.89298 21.8707 3.86959 21.8547 3.85268L21.8352 3.83218L21.8288 3.82559L21.8267 3.82323C21.8267 3.82323 21.825 3.82148 20.6863 4.99999C19.5477 6.17851 19.547 6.17786 19.547 6.17786L19.5548 6.18606L19.597 6.23111C19.6362 6.27344 19.6972 6.34009 19.7768 6.42984C19.9362 6.60944 20.1695 6.88089 20.4522 7.23448C21.0187 7.94306 21.7773 8.97356 22.5355 10.2485C24.0655 12.822 25.5172 16.2636 25.5172 20C25.5172 23.7363 24.0655 27.178 22.5355 29.7515C21.7773 31.0265 21.0187 32.057 20.4522 32.7655C20.1695 33.1192 19.9362 33.3905 19.7768 33.5702C19.6972 33.6598 19.6362 33.7265 19.597 33.7688L19.5548 33.814L19.547 33.8222Z" fill="black"/>
<path fill-rule="evenodd" clip-rule="evenodd" d="M21.8255 33.8222C21.8255 33.8222 21.825 33.8215 20.6863 35C19.5476 36.1785 19.5468 36.1777 19.5468 36.1777L19.5436 36.1743L19.5373 36.1678L19.5178 36.1473C19.5018 36.1303 19.4798 36.107 19.4523 36.0773C19.3971 36.018 19.3198 35.9332 19.2233 35.8243C19.0303 35.6068 18.7603 35.2923 18.4393 34.8907C17.7981 34.0888 16.9465 32.9318 16.0942 31.4985C14.4038 28.6553 12.6348 24.597 12.6348 20C12.6348 15.4031 14.4038 11.3447 16.0942 8.50149C16.9465 7.06809 17.7981 5.91109 18.4393 5.10926C18.7603 4.70763 19.0303 4.39314 19.2233 4.17561C19.3198 4.06679 19.3971 3.98208 19.4523 3.92268C19.4798 3.89298 19.5018 3.86959 19.5178 3.85268L19.5373 3.83218L19.5436 3.82559L19.546 3.82323C19.546 3.82323 19.5476 3.82148 20.6863 4.99999C21.825 6.17851 21.8255 6.17786 21.8255 6.17786L21.8178 6.18606L21.7755 6.23111C21.7363 6.27344 21.6753 6.34009 21.5956 6.42984C21.4365 6.60944 21.2031 6.88089 20.9203 7.23448C20.3538 7.94306 19.5951 8.97356 18.8371 10.2485C17.307 12.822 15.8553 16.2636 15.8553 20C15.8553 23.7363 17.307 27.178 18.8371 29.7515C19.5951 31.0265 20.3538 32.057 20.9203 32.7655C21.2031 33.1192 21.4365 33.3905 21.5956 33.5702C21.6753 33.6598 21.7363 33.7265 21.7755 33.7688L21.8178 33.814L21.8255 33.8222Z" fill="black"/>
</svg>
