<?xml version="1.0" encoding="utf-8"?>
<!-- Generator: Adobe Illustrator 27.4.1, SVG Export Plug-In . SVG Version: 6.00 Build 0)  -->
<svg version="1.1" id="Layer_1" xmlns="http://www.w3.org/2000/svg" xmlns:xlink="http://www.w3.org/1999/xlink" x="0px" y="0px"
	 viewBox="0 0 340.5 68.03" style="enable-background:new 0 0 340.5 68.03;" xml:space="preserve">
<style type="text/css">
	.st0{fill:#FFFFFF;}
	.st1{fill:#3766B1;}
</style>
<g>
	<path class="st0" d="M42.65,19.52L31.9,37.38v9.86h-6.21v-9.86L14.94,19.52h7.33l6.53,11.81l6.53-11.81H42.65z"/>
	<path class="st0" d="M48.11,46.06c-2.14-1.21-3.8-2.9-4.98-5.09s-1.76-4.72-1.76-7.6c0-2.88,0.59-5.41,1.76-7.6
		c1.17-2.19,2.83-3.88,4.98-5.09c2.14-1.21,4.61-1.81,7.41-1.81c2.79,0,5.26,0.6,7.41,1.81c2.14,1.21,3.8,2.9,4.98,5.09
		c1.17,2.19,1.76,4.72,1.76,7.6c0,2.88-0.59,5.41-1.76,7.6s-2.83,3.88-4.98,5.09c-2.14,1.21-4.61,1.81-7.41,1.81
		C52.72,47.87,50.25,47.27,48.11,46.06z M61.31,39.82c1.39-1.55,2.08-3.7,2.08-6.45c0-2.75-0.69-4.9-2.08-6.45
		c-1.39-1.55-3.32-2.32-5.79-2.32c-2.48,0-4.41,0.77-5.79,2.32c-1.39,1.55-2.08,3.7-2.08,6.45c0,2.75,0.69,4.9,2.08,6.45
		c1.39,1.55,3.32,2.32,5.79,2.32C57.99,42.14,59.92,41.37,61.31,39.82z"/>
	<path class="st0" d="M90.03,25.76c-1.16-0.79-2.7-1.18-4.62-1.18c-2.41,0-4.31,0.79-5.7,2.37c-1.39,1.58-2.08,3.73-2.08,6.46
		c0,2.73,0.69,4.87,2.08,6.43c1.39,1.56,3.29,2.34,5.7,2.34c1.39,0,2.61-0.24,3.68-0.72c1.07-0.48,1.9-1.13,2.5-1.95
		c0.6-0.82,0.93-1.73,0.99-2.74H85.4v-5.12h13.44v2.34c0,2.92-0.57,5.43-1.7,7.52c-1.13,2.09-2.71,3.67-4.74,4.75
		c-2.03,1.08-4.36,1.62-7.01,1.62c-2.77,0-5.22-0.6-7.34-1.81c-2.12-1.21-3.77-2.9-4.94-5.09s-1.76-4.71-1.76-7.57
		c0-2.88,0.59-5.42,1.76-7.62s2.82-3.9,4.94-5.1c2.12-1.21,4.57-1.81,7.34-1.81c2.39,0,4.53,0.42,6.43,1.26
		c1.9,0.84,3.41,2.03,4.54,3.55c1.13,1.53,1.77,3.29,1.92,5.3h-6.27C91.86,27.63,91.19,26.55,90.03,25.76z"/>
	<path class="st0" d="M124.57,42.86c-1,1.59-2.42,2.82-4.24,3.7c-1.82,0.87-3.92,1.31-6.29,1.31c-2.39,0-4.49-0.44-6.3-1.31
		c-1.81-0.88-3.22-2.1-4.22-3.68c-1-1.58-1.5-3.41-1.5-5.5V19.52h6.14v17.31c0,1.66,0.52,2.97,1.55,3.9
		c1.04,0.94,2.48,1.41,4.34,1.41c1.84,0,3.28-0.47,4.32-1.42s1.57-2.25,1.57-3.89V19.49h6.14v17.89
		C126.08,39.45,125.57,41.27,124.57,42.86z"/>
	<path class="st0" d="M130.84,19.52h12.06c1.94,0,3.65,0.35,5.14,1.06c1.48,0.7,2.63,1.7,3.44,2.99c0.81,1.29,1.22,2.81,1.22,4.56
		c0,1.83-0.44,3.4-1.31,4.7s-2.11,2.27-3.71,2.91c0.49,0.3,0.9,0.66,1.22,1.09c0.32,0.43,0.7,1.1,1.15,2.02l4,8.38h-7.01l-3.81-8.8
		c-0.34-0.75-0.75-1.24-1.22-1.49c-0.47-0.25-1.14-0.37-2.02-0.37h-3.04v10.69h-6.11V19.52z M143.04,31.1
		c1.17,0,2.04-0.24,2.61-0.72s0.85-1.23,0.85-2.26s-0.28-1.78-0.85-2.26s-1.43-0.72-2.61-0.72h-6.08v5.92L143.04,31.1z"/>
	<path class="st0" d="M162.78,25.22h-8.32v-5.7h22.82v5.7h-8.29v22.02h-6.21V25.22z"/>
	<path class="st0" d="M211.39,40.29l4.58-20.77h6.78l-7.01,27.71h-8.1l-3.74-19.01l-3.74,19.01h-8.1l-7.01-27.71h6.78l4.61,20.7
		l3.94-20.7h7.04L211.39,40.29z"/>
	<path class="st0" d="M229.32,46.06c-2.14-1.21-3.8-2.9-4.98-5.09s-1.76-4.72-1.76-7.6c0-2.88,0.59-5.41,1.76-7.6
		c1.17-2.19,2.83-3.88,4.98-5.09c2.14-1.21,4.61-1.81,7.41-1.81s5.26,0.6,7.41,1.81c2.14,1.21,3.8,2.9,4.98,5.09
		c1.17,2.19,1.76,4.72,1.76,7.6c0,2.88-0.59,5.41-1.76,7.6c-1.17,2.19-2.83,3.88-4.98,5.09c-2.14,1.21-4.61,1.81-7.41,1.81
		S231.47,47.27,229.32,46.06z M242.52,39.82c1.39-1.55,2.08-3.7,2.08-6.45c0-2.75-0.69-4.9-2.08-6.45
		c-1.39-1.55-3.32-2.32-5.79-2.32s-4.41,0.77-5.79,2.32c-1.39,1.55-2.08,3.7-2.08,6.45c0,2.75,0.69,4.9,2.08,6.45
		c1.39,1.55,3.32,2.32,5.79,2.32S241.14,41.37,242.52,39.82z"/>
	<path class="st0" d="M254.2,19.52h12.06c1.94,0,3.65,0.35,5.14,1.06c1.48,0.7,2.63,1.7,3.44,2.99c0.81,1.29,1.22,2.81,1.22,4.56
		c0,1.83-0.44,3.4-1.31,4.7s-2.11,2.27-3.71,2.91c0.49,0.3,0.9,0.66,1.22,1.09c0.32,0.43,0.7,1.1,1.15,2.02l4,8.38h-7.01l-3.81-8.8
		c-0.34-0.75-0.75-1.24-1.22-1.49c-0.47-0.25-1.14-0.37-2.02-0.37h-3.04v10.69h-6.11V19.52z M266.39,31.1
		c1.17,0,2.04-0.24,2.61-0.72s0.85-1.23,0.85-2.26s-0.28-1.78-0.85-2.26s-1.43-0.72-2.61-0.72h-6.08v5.92L266.39,31.1z"/>
	<path class="st0" d="M280.15,19.52h6.24V41.5h13.54v5.76h-19.78V19.52z"/>
	<path class="st0" d="M303,19.52h10.56c2.58,0,4.85,0.58,6.82,1.73c1.96,1.15,3.49,2.77,4.58,4.86c1.09,2.09,1.63,4.51,1.63,7.26
		c0,2.75-0.54,5.17-1.63,7.26s-2.61,3.71-4.58,4.86c-1.96,1.15-4.23,1.73-6.82,1.73H303V19.52z M312.86,41.6
		c2.35,0,4.18-0.73,5.5-2.18c1.32-1.45,1.98-3.47,1.98-6.05s-0.66-4.6-1.98-6.05c-1.32-1.45-3.16-2.18-5.5-2.18h-3.74V41.6H312.86z"
		/>
</g>
<g>
	<g>
		<path class="st1" d="M263.74-151.48c1.29,0,1.29-2,0-2C262.45-153.48,262.45-151.48,263.74-151.48L263.74-151.48z"/>
	</g>
</g>
</svg>
