<svg width="40" height="40" viewBox="0 0 40 40" fill="none" xmlns="http://www.w3.org/2000/svg">
<path d="M4.99833 10.1724C4.07833 10.1724 3.33167 10.9191 3.33167 11.8391C3.33167 12.7591 4.07833 13.5058 4.99833 13.5058H34.9983C35.9183 13.5058 36.665 12.7591 36.665 11.8391C36.665 10.9191 35.9183 10.1724 34.9983 10.1724H4.99833ZM4.99833 18.5058C4.07833 18.5058 3.33167 19.2525 3.33167 20.1725C3.33167 21.0925 4.07833 21.8392 4.99833 21.8392H34.9983C35.9183 21.8392 36.665 21.0925 36.665 20.1725C36.665 19.2525 35.9183 18.5058 34.9983 18.5058H4.99833ZM4.99833 26.8392C4.07833 26.8392 3.33167 27.5858 3.33167 28.5058C3.33167 29.4258 4.07833 30.1725 4.99833 30.1725H34.9983C35.9183 30.1725 36.665 29.4258 36.665 28.5058C36.665 27.5858 35.9183 26.8392 34.9983 26.8392H4.99833Z" fill="#2A343D"/>
</svg>
