<?xml version="1.0" encoding="UTF-8"?>
<svg version="1.1" xmlns="http://www.w3.org/2000/svg" width="50" height="50">
<path d="M0 0 C4.08778408 3.17938762 7.19547616 5.70855844 8.1953125 11 C8.43580632 16.90011505 7.76116351 20.79844043 3.6875 25.3125 C-1.17779818 29.92172985 -5.75620885 31.24517151 -12.3125 31.6875 C-16.97814182 32.05878981 -19.5222524 33.5149363 -23.3125 36.3125 C-24.6325 36.3125 -25.9525 36.3125 -27.3125 36.3125 C-26.9825 33.3425 -26.6525 30.3725 -26.3125 27.3125 C-27.6325 26.6525 -28.9525 25.9925 -30.3125 25.3125 C-34.38552789 20.90005312 -35.11251793 16.88707704 -34.890625 11.0703125 C-33.86976346 6.20052705 -31.0975355 3.37657636 -27.3125 0.3125 C-19.76430668 -4.61693237 -7.7128776 -4.78730334 0 0 Z M-29.8125 7.0625 C-31.60471592 10.94563449 -32.39805281 14.16185692 -31.3125 18.3125 C-29.21977693 21.6302317 -26.85331384 24.54209308 -23.3125 26.3125 C-23.3125 27.9625 -23.3125 29.6125 -23.3125 31.3125 C-22.62027344 31.00054687 -21.92804687 30.68859375 -21.21484375 30.3671875 C-18.05953119 29.22057324 -15.20571303 28.82196393 -11.875 28.4375 C-5.28545775 27.47807455 -1.75858994 25.62984836 3.0625 21.0625 C5.20483398 17.43701172 5.4525046 14.36861812 4.6875 10.3125 C2.51125013 5.59729195 -0.2478925 3.07626229 -4.90625 1.0078125 C-14.27787199 -1.70022113 -23.22088837 -0.18827279 -29.8125 7.0625 Z " fill="#FFFFFF" transform="translate(38.3125,8.6875)"/>
<path d="M0 0 C4.29 0 8.58 0 13 0 C13.66 1.65 14.32 3.3 15 5 C15.33 3.35 15.66 1.7 16 0 C16.99 0 17.98 0 19 0 C19 2.31 19 4.62 19 7 C19.99 7 20.98 7 22 7 C22 4.69 22 2.38 22 0 C22.5775 0.185625 23.155 0.37125 23.75 0.5625 C26.20692525 1.04023546 27.64397534 0.75729364 30 0 C29.814375 0.9075 29.62875 1.815 29.4375 2.75 C29.04265379 5.68314324 29.05308428 7.2644657 30 10 C29.360625 9.814375 28.72125 9.62875 28.0625 9.4375 C27.0415625 9.2209375 27.0415625 9.2209375 26 9 C25.67 9.33 25.34 9.66 25 10 C23.25739913 10.26314443 21.50469034 10.46079101 19.75 10.625 C18.79609375 10.72039063 17.8421875 10.81578125 16.859375 10.9140625 C14.04437633 10.99866629 11.73984581 10.58314286 9 10 C7.32774271 10.30404678 5.65919896 10.63128912 4 11 C3 10 3 10 2.9375 6.4375 C2.958125 5.303125 2.97875 4.16875 3 3 C2.01 3 1.02 3 0 3 C0 2.01 0 1.02 0 0 Z M6 3 C6.33 4.32 6.66 5.64 7 7 C7.33 5.68 7.66 4.36 8 3 C7.34 3 6.68 3 6 3 Z " fill="#FFFFFF" transform="translate(10,18)"/>
</svg>
